<svg xmlns="http://www.w3.org/2000/svg" width="18" height="14" fill="none"  xmlns:v="https://vecta.io/nano"><path d="M17.25 2.364v9.273c0 .446-.169.831-.497 1.144s-.726.47-1.181.47H2.429c-.456 0-.854-.157-1.182-.47S.75 12.082.75 11.636V2.364c0-.446.169-.831.497-1.144L17.25 2.364zm0 0c0-.446-.169-.831-.497-1.144a1.66 1.66 0 0 0-1.181-.47m1.678 1.614L15.572.75m.028 10.897h0l.007-.008V5.677l-.218.177-3.795 2.874-.156-.195 4.162 3.113zm0 0c-.015.01-.019.012-.028.012H2.429c-.017-.003-.021-.005-.028-.011h0l-.007-.008V5.677m13.207 5.97L2.393 5.677m0 0l.213.174.005.004 3.795 2.874.752.579M2.393 5.677l5.584 4.071c-.333-.143-.609-.289-.819-.44m0 0l.146-.203-.146.203zm8.361-6.967H2.429c-.016.003-.021.005-.028.012h0l-.007.007c0 .867.39 1.604 1.213 2.224l11.913-2.243zm0 0a.45.45 0 0 0 .066.019l.018.028.002.065.001.021v.206c0 .267-.111.592-.372.981s-.546.7-.841.924L10.808 7.29l-.314.252h0l-.401.312-.385.26c-.154.099-.288.167-.403.211s-.213.061-.296.061h-.018c-.083 0-.181-.018-.296-.061a2.17 2.17 0 0 1-.403-.211l-.385-.26-.401-.312-.314-.252-.005-.004-3.581-2.702 11.913-2.243zM15.572.75H2.429m13.143 0H2.429m0 0a1.66 1.66 0 0 0-1.182.47L2.429.75z" fill="#fff" stroke="#fff" stroke-width=".5"/></svg>