<svg xmlns="http://www.w3.org/2000/svg" width="17" height="17" fill="none"  xmlns:v="https://vecta.io/nano"><path d="M13.627 9.982c-.327-.341-.722-.523-1.141-.523s-.813.179-1.154.52l-1.067 1.063-.26-.135-.334-.179c-.999-.635-1.907-1.462-2.778-2.531-.422-.533-.705-.982-.911-1.438l.783-.77.284-.287c.709-.709.709-1.627 0-2.336l-.921-.921-.314-.321-.635-.628C4.852 1.172 4.46 1 4.048 1s-.81.172-1.148.496L1.746 2.661a2.47 2.47 0 0 0-.732 1.569c-.081.986.209 1.904.432 2.504.547 1.475 1.364 2.842 2.582 4.307 1.478 1.765 3.257 3.159 5.289 4.141.776.368 1.813.803 2.97.878l.213.007c.78 0 1.434-.28 1.947-.837.003-.007.01-.01.014-.017.175-.213.378-.405.591-.611l.439-.435c.334-.348.51-.753.51-1.168s-.179-.82-.52-1.158l-1.853-1.86zm1.208 3.554l-.412.412-.652.675c-.341.364-.742.537-1.269.537-.051 0-.105 0-.155-.003-1.003-.064-1.934-.456-2.633-.79-1.91-.925-3.588-2.238-4.982-3.902-1.151-1.387-1.921-2.67-2.43-4.047-.314-.84-.429-1.495-.378-2.113a1.55 1.55 0 0 1 .466-1.002l1.151-1.151c.165-.155.341-.24.513-.24.213 0 .385.128.493.236l.618.614.321.327.921.921c.358.358.358.689 0 1.046l-.29.29-.847.824c-.007.007-.014.01-.017.017-.29.29-.236.574-.176.766l.01.03c.24.581.577 1.127 1.09 1.779l.003.003c.932 1.148 1.914 2.042 2.997 2.727a4.62 4.62 0 0 0 .415.226l.334.179c.014.007.027.017.041.024a.73.73 0 0 0 .334.084c.28 0 .456-.175.513-.233l1.154-1.154c.115-.115.297-.253.51-.253s.381.132.486.246l1.867 1.867c.348.344.348.699.003 1.056z" fill="#1e1e1e"/><path d="M14.836 13.536zm0 0l-.412.412-.652.675c-.341.364-.742.537-1.269.537-.051 0-.105 0-.155-.003-1.003-.064-1.934-.456-2.633-.79-1.91-.925-3.588-2.238-4.982-3.902-1.151-1.387-1.921-2.67-2.43-4.047-.314-.84-.429-1.495-.378-2.113a1.55 1.55 0 0 1 .466-1.002l1.151-1.151c.165-.155.341-.24.513-.24.213 0 .385.128.493.236l.618.614.321.327.921.921c.358.358.358.689 0 1.046l-.29.29-.847.824c-.007.007-.014.01-.017.017-.29.29-.236.574-.176.766l.01.03c.24.581.577 1.127 1.09 1.779l.003.003c.932 1.148 1.914 2.042 2.997 2.727a4.62 4.62 0 0 0 .415.226l.334.179c.014.007.027.017.041.024a.73.73 0 0 0 .334.084c.28 0 .456-.175.513-.233l1.154-1.154c.115-.115.297-.253.51-.253s.381.132.486.246l1.867 1.867c.348.344.348.699.003 1.056zm-1.208-3.554c-.327-.341-.722-.523-1.141-.523s-.813.179-1.154.52l-1.067 1.063-.26-.135-.334-.179c-.999-.635-1.907-1.462-2.778-2.531-.422-.533-.705-.982-.911-1.438l.783-.77.284-.287c.709-.709.709-1.627 0-2.336l-.921-.921-.314-.321-.635-.628C4.852 1.172 4.46 1 4.048 1s-.81.172-1.148.496L1.746 2.661a2.47 2.47 0 0 0-.732 1.569c-.081.986.209 1.904.432 2.504.547 1.475 1.364 2.842 2.582 4.307 1.478 1.765 3.257 3.159 5.289 4.141.776.368 1.813.803 2.97.878l.213.007c.78 0 1.434-.28 1.947-.837.003-.007.01-.01.014-.017.175-.213.378-.405.591-.611l.439-.435c.334-.348.51-.753.51-1.168s-.179-.82-.52-1.158l-1.853-1.86z" stroke="#1f1f1f"/></svg>