<svg xmlns="http://www.w3.org/2000/svg" width="26" height="27" fill="#fff"  xmlns:v="https://vecta.io/nano"><path d="M0 26.5h11.818V14.681H0V26.5zm2.363-9.454h7.091v7.073H2.363v-7.073zm4.728 2.362H4.727v2.364h2.364v-2.364zm14.182 4.728h-2.364V26.5h2.364v-2.364zm4.727 0h-2.364V26.5H26v-2.364zm-2.364-7.091h-2.363v-2.364h-7.091V26.5h2.364v-7.091h2.363v2.364H26v-7.091h-2.364v2.364zM0 12.319h11.818V.5H0v11.818zm2.363-9.455h7.091v7.091H2.363V2.864zm4.728 2.363H4.727v2.364h2.364V5.227zM14.181.5v11.818H26V.5H14.181zm9.455 9.454h-7.091V2.863h7.091v7.091zm-2.363-4.727h-2.364v2.364h2.364V5.227z"/></svg>