<svg xmlns="http://www.w3.org/2000/svg" width="18" height="16" fill="#000"  xmlns:v="https://vecta.io/nano"><path d="M17.722.417C17.502.148 17.173 0 16.795 0c-.206 0-.423.043-.647.129L.911 5.945c-.809.309-.917.772-.91 1.02s.142.705.967.967l2.152.616 10.407-5.317c.259-.133.577-.03.71.23a.53.53 0 0 1-.086.601h0L8.365 10.21l-.165.669 4.93 3.969c.323.25.667.38 1.003.38.657 0 1.18-.486 1.332-1.238l2.496-12.327c.1-.495.016-.938-.237-1.247zM7.373 9.824a.52.52 0 0 1 .128-.235l3.797-4.034-7.045 3.599 1.6 4.575c.091.261.227.483.395.656l1.127-4.561zm-.144 4.985c.38-.003.754-.163 1.081-.465l1.17-1.078-1.56-1.256-.691 2.799z"/></svg>