<svg xmlns="http://www.w3.org/2000/svg" width="15" height="17" fill="none"  xmlns:v="https://vecta.io/nano"><path d="M9.167 0H5.833A5.84 5.84 0 0 0 0 5.833v2.5c0 2.258 1.302 4.308 3.333 5.272v2.784c0 .242.302.368.474.196l2.419-2.419h2.941A5.84 5.84 0 0 0 15 8.333v-2.5A5.84 5.84 0 0 0 9.167 0z" fill="#000"/><path d="M11.694 10.354l-.25-1.353c-.021-.112-.107-.2-.219-.222l-1.964-.393c-.091-.018-.185.01-.251.076l-.798.798c-1.344-.602-2.091-1.35-2.747-2.752l.795-.795c.066-.066.094-.16.076-.251l-.393-1.964c-.022-.111-.11-.198-.222-.219l-1.353-.25c-.037-.007-.075-.006-.112.002a1.94 1.94 0 0 0-.943.521c-.449.449-.621 1.105-.496 1.896.209 1.328.86 3.176 2.06 4.382l.016.016c1.204 1.2 3.053 1.85 4.381 2.059a3.1 3.1 0 0 0 .483.039c.576 0 1.058-.182 1.413-.536a1.94 1.94 0 0 0 .521-.942c.008-.037.009-.075.002-.112z" fill="#fff"/><path d="M5.989 5.984l.272-.272-.272.272zM9.01 8.462l-.274.274.274-.274z" fill="#cecece"/><path d="M8.056 4.722c-.153 0-.278.124-.278.278s.124.278.278.278a1.11 1.11 0 0 1 1.111 1.111.28.28 0 0 0 .278.278.28.28 0 0 0 .278-.278 1.67 1.67 0 0 0-1.667-1.667zm0-1.111c-.103 0-.206.006-.308.017a.28.28 0 0 0-.246.307c.016.153.154.262.307.246a2.26 2.26 0 0 1 .247-.014c1.225 0 2.222.997 2.222 2.222 0 .083-.005.166-.014.247a.28.28 0 0 0 .246.307.28.28 0 0 0 .307-.246 2.83 2.83 0 0 0 .017-.308 2.78 2.78 0 0 0-2.778-2.778zm0-1.111l-.299.011c-.153.012-.268.145-.256.298s.145.268.298.256l.257-.01a3.34 3.34 0 0 1 3.333 3.333 3.35 3.35 0 0 1-.089.769.28.28 0 0 0 .197.332.28.28 0 0 0 .344-.204c.069-.292.104-.594.104-.897 0-2.144-1.745-3.889-3.889-3.889z" fill="#fff"/></svg>