<svg xmlns="http://www.w3.org/2000/svg" width="16" height="16" fill="none"  xmlns:v="https://vecta.io/nano"><path d="M8.002 0h-.004A8.01 8.01 0 0 0 0 8a7.94 7.94 0 0 0 1.523 4.689l-.997 2.972 3.075-.983A7.93 7.93 0 0 0 8.002 16 8.01 8.01 0 0 0 16 8a8.01 8.01 0 0 0-7.998-8zm4.655 11.297c-.193.545-.959.997-1.57 1.129-.418.089-.964.16-2.802-.602-2.351-.974-3.865-3.363-3.983-3.518-.113-.155-.95-1.265-.95-2.413s.583-1.707.818-1.947c.193-.197.512-.287.818-.287l.268.009c.235.01.353.024.508.395l.719 1.731c.057.118.114.278.034.433s-.141.231-.259.367-.23.24-.348.386c-.108.127-.23.263-.094.498s.606.997 1.298 1.613c.893.795 1.617 1.049 1.876 1.157.193.08.423.061.564-.089.179-.193.4-.513.625-.828.16-.226.362-.254.574-.174.216.075 1.359.64 1.594.757s.39.174.447.273.056.564-.137 1.11z" fill="#000"/></svg>