<svg width="88" height="88" viewBox="0 0 88 88" fill="none" xmlns="http://www.w3.org/2000/svg">
<circle cx="44" cy="44" r="44" fill="black"/>
<path d="M53.9501 49.515C52.7522 48.3323 51.2567 48.3323 50.0665 49.515C49.1585 50.4153 48.2505 51.3156 47.3578 52.2312C47.1137 52.483 46.9076 52.5364 46.6101 52.3686C46.0226 52.0481 45.3969 51.7887 44.8323 51.4377C42.1999 49.782 39.9949 47.6532 38.0416 45.2574C37.0726 44.0671 36.2104 42.7929 35.6076 41.3585C35.4856 41.0686 35.5084 40.8778 35.745 40.6413C36.6529 39.7638 37.538 38.8635 38.4307 37.9632C39.6744 36.7118 39.6744 35.2469 38.4231 33.9879C37.7135 33.2707 37.0039 32.5688 36.2943 31.8515C35.5619 31.1191 34.837 30.3789 34.0969 29.6541C32.899 28.4867 31.4035 28.4867 30.2132 29.6617C29.2976 30.5621 28.4202 31.4853 27.4893 32.3704C26.6271 33.1868 26.1922 34.1863 26.1007 35.3537C25.9557 37.2536 26.4211 39.0466 27.0773 40.7939C28.4202 44.4105 30.465 47.6227 32.9448 50.5679C36.2943 54.5507 40.2924 57.7019 44.9696 59.9757C47.0755 60.9981 49.2577 61.784 51.6306 61.9137C53.2634 62.0052 54.6826 61.5932 55.8195 60.319C56.5977 59.4492 57.4752 58.6557 58.2992 57.824C59.52 56.588 59.5276 55.0925 58.3145 53.8717C56.8648 52.4144 55.4074 50.9647 53.9501 49.515Z" fill="white"/>
<path d="M52.4927 43.4339L55.3082 42.9532C54.8656 40.3666 53.6448 38.0242 51.7908 36.1625C49.8298 34.2016 47.3501 32.9655 44.6186 32.584L44.2218 35.4148C46.3353 35.7123 48.2581 36.6661 49.7764 38.1845C51.2109 39.6189 52.1494 41.4348 52.4927 43.4339Z" fill="white"/>
<path d="M56.895 31.1954C53.6446 27.945 49.5321 25.8926 44.9922 25.2593L44.5955 28.09C48.5173 28.6394 52.0728 30.4171 54.8807 33.2174C57.5435 35.8802 59.2908 39.245 59.9241 42.9456L62.7396 42.4649C61.9995 38.1768 59.9775 34.2856 56.895 31.1954Z" fill="white"/>
</svg>
