<svg xmlns="http://www.w3.org/2000/svg" width="34" height="33" fill="none"  xmlns:v="https://vecta.io/nano"><path d="M3.605 6.168c-.126.121.827 2.225 1.436 3.53.304.651.321 1.402.04 2.063M3.605 6.168l26.685-.112m-26.685.112l2.639-2.562-2.639 2.562zm1.476 5.593c-.266.625-.773 1.114-1.405 1.362L0 14.762v3.625c0 .176 2.265 1.029 3.642 1.531a2.53 2.53 0 0 1 1.464 1.384 2.53 2.53 0 0 1-.012 2.002l-1.383 3.638m1.369-15.179l1.841.783a4.53 4.53 0 0 1-2.515 2.441l-2.293.933-.113.049m3.081-4.206l1.841.783c.507-1.193.471-2.535-.068-3.691L5.898 6.73M3.712 26.941l2.643 2.565m-2.643-2.565l1.402-1.427c.373.366.495.771.538.956a1.88 1.88 0 0 1 .05.448 1.53 1.53 0 0 1-.027.28v.001l-.005.021c0 0 .007-.028.029-.094l.285-.768m-2.271.583l1.393-1.435.878.852m.372 3.148c.124.12 2.321-.819 3.663-1.409.657-.289 1.402-.305 2.068-.038a2.67 2.67 0 0 1 1.465 1.45L15.213 33h3.731c.176 0 1.024-2.112 1.545-3.454a2.67 2.67 0 0 1 1.491-1.515M6.355 29.506l1.389-1.439m-1.389 1.439l1.393-1.435-.004-.004m14.236-.036c.644-.258 1.362-.252 2.004.012l3.771 1.354m-5.776-1.366l-.745-1.856c1.134-.455 2.392-.441 3.509.018l2.291.908.155.058m-5.21.872l-.745-1.856a4.67 4.67 0 0 0-2.611 2.647l-.875 2.164m10.006-1.59l2.643-2.562m-2.643 2.562l-1.382-1.445c.371-.355.771-.464.939-.5.193-.042.346-.044.42-.043.143.002.243.021.255.023h.001c.013.002-.019-.005-.096-.029l-.701-.243m.565 2.238l-1.392-1.436.827-.802m3.208-.324c.127-.123-.828-2.227-1.438-3.531-.304-.651-.323-1.401-.042-2.063.265-.625.772-1.114 1.404-1.362L34 18.235v-3.622c.001-.175-2.257-1.023-3.634-1.524-.662-.241-1.196-.742-1.471-1.39-.272-.641-.265-1.365.012-2.003l1.381-3.64m.109 20.779l-1.392-1.436-.004.003m1.396 1.432l-1.396-1.432M30.29 6.056l-1.395 1.433m1.395-1.433l-1.391 1.437-.004-.004m0 0c-.374-.364-.498-.768-.542-.954a1.88 1.88 0 0 1-.051-.45c.001-.156.023-.266.027-.282v-.001l.005-.022c0 0-.007.028-.029.093l-.284.769.875.847zm.108 17.913l-.897.87.009.022.308.774.026.079c0 0-.003-.012-.008-.033v-.001c-.004-.021-.03-.139-.031-.308-.001-.086.004-.258.056-.468.049-.199.178-.586.537-.935zM26.256 4.936c.361.349.75.463.931.504.199.045.359.048.438.046.154-.002.261-.024.277-.027h.001l.021-.004c0 0-.028.008-.095.029l-.728.271-.846-.818zm0 0l1.389-1.439-1.391 1.437.002.001zm.934 22.223L17.62 2m.124 29H16.38m1.364 0l-.337.736-.039.073c0 0 .006-.01.018-.027s.076-.113.194-.23c.06-.059.181-.17.36-.277.168-.1.52-.275 1.004-.275h-1.2zm-1.364 0l-.037-.079-.948-2.184a4.67 4.67 0 0 0-2.565-2.534c-1.173-.471-2.477-.439-3.618.063l-2.227.945-.087.035M16.38 31h-1.167c.493 0 .848.182 1.006.276a1.88 1.88 0 0 1 .348.266c.11.107.173.197.183.212l.001.001.013.019c0 0-.015-.024-.046-.083L16.38 31zm-9.482-3.754l-.915-.888m.915.888l-.732.274-.096.03c0 0 .007-.002.02-.004h.001a1.52 1.52 0 0 1 .274-.028c.078-.002.238 0 .437.044.179.039.576.152.942.506m-.846-.821l.846.821m-1.761-1.709l.018-.046.928-2.21a4.53 4.53 0 0 0 .018-3.583 4.53 4.53 0 0 0-2.619-2.479l-2.274-.864L2 17.154m0 0v-1.186m0 1.186l-.757-.326-.088-.044c0 0 .007.004.02.012h.001c.015.009.111.07.226.18.059.056.177.175.292.355.105.165.307.536.307 1.056v-1.233zm0-1.186l-.72.329-.101.053.013-.008c.011-.007.099-.064.206-.165.055-.052.169-.165.282-.338.099-.151.32-.532.32-1.077v1.206zM5.898 6.73l.914-.888m-.914.888l-.009-.021-.308-.775-.026-.08c0 0 .003.011.007.032v.001c.004.021.03.138.031.306a1.89 1.89 0 0 1-.055.469c-.049.199-.178.589-.54.941l.899-.873zm.914-.888l.158.059 2.296.908c1.116.457 2.373.471 3.506.015 1.206-.485 2.14-1.45 2.603-2.643l.875-2.165M6.812 5.843l.825-.8m-.825.8l-.7-.242-.108-.031.015.003a1.49 1.49 0 0 0 .26.023 1.87 1.87 0 0 0 .426-.047c.17-.038.566-.151.933-.507M16.257 2h1.363m-1.363 0l.336-.735.039-.073c0 0-.006.01-.018.027l-.001.001a1.55 1.55 0 0 1-.195.229 1.88 1.88 0 0 1-.361.277c-.168.1-.519.273-1.001.273h1.199zm1.363 0l-.338-.693-.047-.083c0 0 .005.007.013.019h.001a1.53 1.53 0 0 0 .182.211c.056.055.173.163.347.267.158.095.514.278 1.01.278H17.62zM7.637 5.042h.001m0 0h0l.009-.008zm25.079 11.662l-.717.329v1.203c0-.538.216-.916.315-1.069.112-.174.227-.288.282-.34.111-.106.202-.163.208-.168.012-.008-.016.009-.088.045zM32 14.616v1.232l.761.327.087.044c0 0-.007-.004-.02-.013l-.001-.001a1.53 1.53 0 0 1-.228-.181 1.88 1.88 0 0 1-.294-.358c-.105-.165-.305-.535-.305-1.051z" stroke="#231b06" stroke-width="4"/><circle cx="17" cy="17" r="5" fill="#231b06"/></svg>