<svg width="34" height="33" viewBox="0 0 34 33" fill="none" xmlns="http://www.w3.org/2000/svg">
<path d="M3.60489 6.16847C3.47936 6.28969 4.43199 8.39377 5.0404 9.69854C5.34416 10.35 5.36189 11.1002 5.08063 11.7617M3.60489 6.16847L30.2896 6.05606M3.60489 6.16847L6.24438 3.60647L3.60489 6.16847ZM5.08063 11.7617C4.81491 12.3867 4.30755 12.8756 3.67545 13.1238C2.30613 13.6617 0 14.5925 0 14.7616V18.3868C0 18.5628 2.26514 19.4157 3.64227 19.918C4.3005 20.1581 4.83211 20.657 5.10662 21.3016C5.37919 21.9417 5.37249 22.6652 5.09492 23.3032C4.51782 24.6295 3.5905 26.8215 3.71198 26.9408M5.08063 11.7617L6.92118 12.5443C6.44267 13.6697 5.53171 14.5435 4.40659 14.9854C3.72655 15.2525 2.83134 15.6104 2.11337 15.9187C2.07469 15.9353 2.03689 15.9516 2 15.9676M5.08063 11.7617L6.92118 12.5443C7.4283 11.3515 7.39223 10.0097 6.85302 8.85333C6.55433 8.21276 6.18095 7.39697 5.89774 6.73016M3.71198 26.9408L6.35462 29.5059M3.71198 26.9408L5.1136 25.5141C5.48629 25.8802 5.60852 26.2855 5.65149 26.47C5.69902 26.674 5.70192 26.8382 5.70103 26.9175C5.69927 27.0726 5.67724 27.1811 5.67391 27.1974L5.67367 27.1986C5.6709 27.2124 5.66909 27.2199 5.66917 27.22C5.66933 27.22 5.67665 27.1917 5.69798 27.126C5.75418 26.9529 5.85142 26.69 5.98257 26.3575M3.71198 26.9408L5.10499 25.5057L5.98257 26.3575M6.35462 29.5059C6.47884 29.6258 8.67555 28.6867 10.0174 28.0966C10.6743 27.8077 11.4195 27.7914 12.0854 28.0588C12.7487 28.3251 13.2745 28.8495 13.5504 29.5089C14.1092 30.8443 15.0383 33 15.2133 33H18.9442C19.1204 33 19.9682 30.888 20.4891 29.5459C20.7565 28.8569 21.2941 28.3063 21.9801 28.0311M6.35462 29.5059L7.74361 28.0669M6.35462 29.5059L7.74763 28.0708L7.74361 28.0669M21.9801 28.0311C22.624 27.7727 23.3424 27.7792 23.9842 28.0429C25.3458 28.6023 27.6311 29.5157 27.7556 29.3966M21.9801 28.0311L21.2354 26.1749C22.3695 25.7199 23.6277 25.7342 24.7443 26.1929C25.4204 26.4707 26.3085 26.8292 27.035 27.1011C27.0884 27.1211 27.1403 27.1404 27.1905 27.1589M21.9801 28.0311L21.2354 26.1749C20.0264 26.6599 19.0888 27.6262 18.6246 28.8223C18.3662 29.488 18.0345 30.3245 17.7499 30.9864C17.748 30.9909 17.746 30.9955 17.7441 31M27.7556 29.3966L30.3983 26.8346M27.7556 29.3966L26.3734 27.9512C26.7448 27.596 27.1444 27.4872 27.312 27.4507C27.5046 27.4087 27.6585 27.4065 27.7316 27.4074C27.8751 27.4091 27.9743 27.4283 27.9868 27.4307L27.9878 27.4309C27.9964 27.4325 28.001 27.4335 28.001 27.4335C28.0011 27.4333 27.9685 27.4255 27.8919 27.402C27.7262 27.3512 27.4869 27.2682 27.1905 27.1589M27.7556 29.3966L26.3635 27.9607L27.1905 27.1589M30.3983 26.8346C30.5249 26.7113 29.5704 24.608 28.9607 23.304C28.6563 22.6529 28.6379 21.9028 28.9186 21.2412C29.1838 20.6164 29.6906 20.1274 30.3223 19.8789C31.6919 19.3401 34 18.4066 34 18.2353V14.6132C34.0011 14.4385 31.7434 13.5903 30.3663 13.0892C29.7048 12.8485 29.1706 12.3472 28.8956 11.6993C28.6236 11.0585 28.6306 10.3347 28.9081 9.69633C29.4851 8.36911 30.4122 6.17541 30.2896 6.05606M30.3983 26.8346L29.0061 25.3987L29.0025 25.4022M30.3983 26.8346L29.0025 25.4022M30.2896 6.05606L28.8944 7.48902M30.2896 6.05606L28.8988 7.49328L28.8944 7.48902M28.8944 7.48902C28.5204 7.1249 28.3961 6.72053 28.352 6.53455C28.3034 6.32971 28.3 6.16474 28.3007 6.08482C28.302 5.92863 28.3241 5.81929 28.3274 5.80266L28.3277 5.80146C28.3305 5.78726 28.3323 5.77949 28.3323 5.77947C28.3321 5.77943 28.3249 5.80754 28.3037 5.87282C28.2477 6.04595 28.1505 6.30913 28.0193 6.64222L28.8944 7.48902ZM29.0025 25.4022L28.1054 26.2719C28.1085 26.2792 28.1116 26.2865 28.1146 26.2937C28.2596 26.635 28.3644 26.8994 28.4226 27.0678C28.4416 27.123 28.4484 27.1471 28.4485 27.1471C28.4486 27.1471 28.4455 27.1353 28.441 27.1142L28.4407 27.1129C28.4363 27.0919 28.4111 26.9735 28.4097 26.8054C28.409 26.7189 28.4134 26.5479 28.4655 26.3373C28.5147 26.1383 28.644 25.7515 29.0025 25.4022ZM26.256 4.93585C26.617 5.28443 27.0064 5.39891 27.1871 5.43971C27.3863 5.48468 27.5464 5.48727 27.6252 5.4862C27.7787 5.48411 27.8858 5.46222 27.9023 5.45885L27.9034 5.45862C27.917 5.45587 27.9244 5.45408 27.9244 5.45416C27.9245 5.45433 27.8959 5.46176 27.8296 5.48346C27.6633 5.53788 27.4149 5.63023 27.1018 5.75434L26.256 4.93585ZM26.256 4.93585L27.6453 3.49724L26.2545 4.9344L26.256 4.93585ZM27.1905 27.1589L17.6202 2M17.7441 31H16.3799M17.7441 31C17.6019 31.3303 17.4868 31.5811 17.4074 31.7357C17.3808 31.7874 17.3682 31.8089 17.3683 31.8089C17.3684 31.809 17.3744 31.799 17.3861 31.7818C17.3956 31.7677 17.4618 31.669 17.5804 31.552C17.6403 31.493 17.761 31.3816 17.9403 31.2749C18.108 31.1752 18.46 31 18.9442 31H17.7441ZM16.3799 31C16.3679 30.9741 16.3557 30.9477 16.3434 30.9209C16.034 30.2469 15.6727 29.3996 15.3954 28.7369C14.9163 27.592 13.9994 26.672 12.8306 26.2028C11.6575 25.7318 10.3535 25.7639 9.21232 26.2658C8.54621 26.5587 7.68608 26.9302 6.98535 27.2111C6.95566 27.223 6.9265 27.2346 6.89787 27.246M16.3799 31H15.2133C15.7061 31 16.0608 31.1816 16.2191 31.276C16.393 31.3798 16.5102 31.4871 16.5669 31.5423C16.6772 31.6497 16.7402 31.7396 16.7503 31.754L16.751 31.755C16.7597 31.7674 16.7642 31.7744 16.7643 31.7743C16.7644 31.7743 16.7495 31.7503 16.7179 31.6917C16.636 31.5402 16.5206 31.3043 16.3799 31ZM6.89787 27.246L5.98257 26.3575M6.89787 27.246C6.58309 27.3711 6.33306 27.4644 6.16558 27.5195C6.09833 27.5416 6.06942 27.5492 6.06947 27.5494C6.06949 27.5494 6.07645 27.5477 6.08925 27.5451L6.0904 27.5449C6.10625 27.5416 6.21207 27.5196 6.36397 27.5167C6.4418 27.5152 6.60174 27.5169 6.80117 27.5606C6.98051 27.6 7.37687 27.7129 7.74361 28.0669M6.89787 27.246L7.74361 28.0669M5.98257 26.3575C5.98858 26.3423 5.99465 26.3269 6.0008 26.3114C6.277 25.6145 6.64238 24.7595 6.92883 24.1011C7.42238 22.9668 7.43784 21.6713 6.94672 20.518C6.45215 19.3566 5.49786 18.466 4.32759 18.0391C3.64406 17.7898 2.75927 17.4604 2.05324 17.1754C2.03529 17.1682 2.01754 17.161 2 17.1539M2 17.1539V15.9676M2 17.1539C1.66679 17.0187 1.40795 16.907 1.24283 16.8275C1.18028 16.7974 1.15464 16.7831 1.15456 16.7832C1.15452 16.7833 1.16164 16.7874 1.17423 16.7955L1.17528 16.7961C1.19 16.8055 1.28598 16.8663 1.40145 16.9757C1.46066 17.0318 1.57858 17.1506 1.69321 17.3304C1.79852 17.4957 2 17.8667 2 18.3868V17.1539ZM2 15.9676C1.68929 16.1024 1.44307 16.2149 1.28004 16.2969C1.2082 16.333 1.17919 16.3499 1.17908 16.3498C1.17904 16.3497 1.18326 16.3471 1.19095 16.3421L1.19172 16.3416C1.20241 16.3347 1.29034 16.2781 1.39802 16.1766C1.45263 16.1251 1.56721 16.0114 1.68046 15.8382C1.7794 15.6869 2 15.3059 2 14.7616V15.9676ZM5.89774 6.73016L6.81217 5.84257M5.89774 6.73016C5.89476 6.72314 5.89179 6.71614 5.88883 6.70916C5.7441 6.3677 5.63921 6.10283 5.58084 5.93403C5.56154 5.87824 5.55471 5.85391 5.5546 5.85394C5.55452 5.85397 5.55758 5.8654 5.56195 5.88597L5.56223 5.88728C5.56661 5.90781 5.59181 6.02577 5.59354 6.19318C5.59442 6.27929 5.59051 6.45085 5.53854 6.66251C5.48979 6.86102 5.36048 7.25139 4.99843 7.60307L5.89774 6.73016ZM6.81217 5.84257C6.86327 5.86133 6.91606 5.88089 6.97047 5.90119C7.69893 6.17301 8.58938 6.53157 9.26661 6.8092C10.3825 7.26665 11.6396 7.2798 12.7722 6.82405C13.978 6.3388 14.9127 5.37404 15.3755 4.18067C15.6337 3.51508 15.9655 2.67784 16.2502 2.01525C16.2524 2.01015 16.2546 2.00506 16.2568 2M6.81217 5.84257L7.63676 5.04219M6.81217 5.84257C6.51605 5.73379 6.27717 5.65133 6.11183 5.60088C6.03583 5.5777 6.00348 5.57001 6.00352 5.56981C6.00354 5.56974 6.00845 5.57079 6.01759 5.57251L6.01854 5.57269C6.03152 5.57517 6.13249 5.59444 6.27817 5.59547C6.3525 5.59599 6.5087 5.59289 6.70378 5.54874C6.87341 5.51034 7.27001 5.39788 7.63676 5.04219M16.2568 2H17.6202M16.2568 2C16.3988 1.67014 16.5138 1.41976 16.5931 1.26534C16.6196 1.21378 16.6322 1.19238 16.6321 1.19232C16.6321 1.19228 16.6259 1.20238 16.6141 1.21973L16.6134 1.22075C16.6016 1.23817 16.5355 1.3354 16.4188 1.4501C16.3587 1.50922 16.2377 1.62049 16.0582 1.7268C15.89 1.82646 15.5392 2 15.0574 2H16.2568ZM17.6202 2C17.4795 1.69532 17.3641 1.45892 17.2822 1.30691C17.2503 1.24786 17.2353 1.2237 17.2355 1.22361C17.2355 1.22357 17.24 1.23042 17.2484 1.24251L17.2491 1.24348C17.259 1.25767 17.3216 1.34734 17.4312 1.45458C17.4875 1.50964 17.6045 1.61732 17.7782 1.72151C17.9359 1.81606 18.2923 2 18.7883 2H17.6202ZM7.63676 5.04219C7.63696 5.04199 7.63717 5.04179 7.63737 5.04159M7.63676 5.04219L7.63737 5.04159M7.63737 5.04159L7.6374 5.04162L7.64603 5.03314C7.64315 5.03597 7.64026 5.03879 7.63737 5.04159ZM32.7168 16.7032C32.5545 16.7851 32.3095 16.8975 32 17.0321V18.2353C32 17.6971 32.2158 17.319 32.3147 17.1662C32.4272 16.9926 32.5413 16.8783 32.5962 16.8261C32.7075 16.7204 32.798 16.6628 32.8044 16.6586C32.8125 16.6533 32.8169 16.6506 32.8168 16.6505C32.8167 16.6504 32.788 16.6672 32.7168 16.7032ZM32 14.6156V15.8479C32.3352 15.9834 32.5952 16.0953 32.7605 16.1747C32.8224 16.2044 32.8478 16.2186 32.8478 16.2185C32.8479 16.2184 32.8406 16.2141 32.8276 16.2059L32.8265 16.2052C32.8116 16.1958 32.7149 16.1346 32.5988 16.0245C32.5393 15.9681 32.4204 15.8485 32.3051 15.6669C32.2001 15.5015 32.0006 15.1322 32 14.6156Z" stroke="#231B06" stroke-width="4"/>
<rect x="12.8286" y="14.0098" width="8.31036" height="4" transform="rotate(45 12.8286 14.0098)" fill="#231B06"/>
<rect x="24.8945" y="13.8284" width="12.6853" height="4" transform="rotate(135 24.8945 13.8284)" fill="#231B06"/>
</svg>
