<svg xmlns="http://www.w3.org/2000/svg" width="77" height="79" fill="none"  xmlns:v="https://vecta.io/nano"><path fill-rule="evenodd" d="M57.25 17.628a10 10 0 0 0-8.541-4.931l-9.719-.077-9.719.077a10 10 0 0 0-8.541 4.931l-4.927 8.379-4.793 8.456a10 10 0 0 0 0 9.862l4.793 8.456 4.927 8.378a10 10 0 0 0 8.541 4.931l9.719.077 9.719-.077a10 10 0 0 0 8.541-4.931l4.927-8.378 4.793-8.456a10 10 0 0 0 0-9.862l-4.793-8.456-4.927-8.379zm-2.692 12.831a18.23 18.23 0 0 0-15.571-8.99 18.23 18.23 0 0 0-15.571 8.99 18.23 18.23 0 0 0 0 17.98 18.23 18.23 0 0 0 15.571 8.99 18.23 18.23 0 0 0 15.571-8.99 18.23 18.23 0 0 0 0-17.98z" fill="#000"/><rect y="29.472" width="76.874" height="19.639" rx="1" fill="#ce0304"/><path d="M3.698 44v-9.242h3.32c1.189 0 2.093.218 2.71.654s.933 1.069.933 1.898c0 .478-.11.886-.33 1.225s-.544.588-.971.749c.482.127.853.364 1.111.711s.387.77.387 1.27c0 .906-.288 1.587-.863 2.044s-1.42.683-2.545.692H3.698zm2.228-3.929v2.215h1.46c.402 0 .711-.091.927-.273s.324-.447.324-.781c0-.77-.383-1.157-1.149-1.162H5.926zm0-1.46h1.162c.487-.004.834-.093 1.041-.267s.311-.429.311-.768c0-.389-.112-.669-.336-.838s-.586-.26-1.085-.26H5.926v2.133zm16.316 1.473h-3.504v2.203h4.139V44H16.51v-9.242h6.379v1.72h-4.151v1.949h3.504v1.657zm8.191 2.203h3.878V44h-6.106v-9.242h2.228v7.528zm12.672-1.549h-1.206V44H39.67v-9.242h3.637c1.096 0 1.953.243 2.571.73s.927 1.174.927 2.063c0 .643-.131 1.176-.394 1.6s-.664.766-1.219 1.028l1.93 3.726V44h-2.387l-1.631-3.263zm-1.206-1.72h1.409c.423 0 .74-.11.952-.33s.324-.535.324-.933-.108-.709-.324-.933-.533-.343-.952-.343h-1.409v2.539zm14.132 2.469l1.841-6.728h2.488L57.249 44h-2.437l-3.085-9.242h2.469l1.834 6.728zM65.458 44v-9.242h2.977c.817 0 1.551.186 2.203.559s1.16.891 1.523 1.568.554 1.428.559 2.266v.425c0 .846-.18 1.606-.54 2.279a3.92 3.92 0 0 1-1.511 1.574c-.647.377-1.371.567-2.171.571h-3.041zm2.228-7.522v5.808h.774c.639 0 1.13-.226 1.473-.679s.514-1.134.514-2.031v-.4c0-.893-.171-1.566-.514-2.019s-.842-.679-1.498-.679h-.749z" fill="#fff"/></svg>